<svg id="Capa_1" data-name="Capa 1" xmlns="http://www.w3.org/2000/svg" xmlns:xlink="http://www.w3.org/1999/xlink" viewBox="0 0 612 516.67"><defs><style>.cls-1,.cls-2,.cls-3{stroke:#000;stroke-linejoin:round;}.cls-1{stroke-width:4px;}.cls-2{fill:#84ba24;stroke-linecap:round;}.cls-2,.cls-3{stroke-width:8px;}.cls-3,.cls-5{fill:none;}.cls-4{fill:#0b0a0c;}.cls-5{stroke:#211915;stroke-miterlimit:10;}.cls-21,.cls-6{font-size:31.63px;}.cls-6{fill:#1f1f1f;}.cls-21,.cls-39,.cls-6{font-family:Helvetica-Bold, Helvetica;}.cls-39,.cls-7{font-weight:700;}.cls-8{letter-spacing:-0.02em;}.cls-9{letter-spacing:-0.04em;}.cls-10{font-size:15px;fill:#1d1d1d;}.cls-10,.cls-22{font-family:Helvetica, Helvetica;}.cls-11{letter-spacing:-0.07em;}.cls-12{letter-spacing:0.13em;}.cls-13{letter-spacing:0em;}.cls-14{letter-spacing:0.18em;}.cls-15{letter-spacing:0.18em;}.cls-16{letter-spacing:0.01em;}.cls-17{letter-spacing:0.01em;}.cls-18{letter-spacing:0.05em;}.cls-19{letter-spacing:0.05em;}.cls-20{letter-spacing:0.4em;}.cls-21,.cls-39{fill:#9c3;}.cls-22{font-size:12px;fill:#dedede;}.cls-23{letter-spacing:1.8em;}.cls-24{letter-spacing:2.24em;}.cls-25{letter-spacing:-0.05em;}.cls-26{letter-spacing:0.04em;}.cls-27{letter-spacing:0.53em;}.cls-28{letter-spacing:0.1em;}.cls-29{letter-spacing:0.1em;}.cls-30{letter-spacing:0.23em;}.cls-31{letter-spacing:-0.07em;}.cls-32{letter-spacing:0.32em;}.cls-33{letter-spacing:0.32em;}.cls-34{letter-spacing:0.01em;}.cls-35{letter-spacing:0.1em;}.cls-36{letter-spacing:0.1em;}.cls-37{letter-spacing:-0.01em;}.cls-38{letter-spacing:-0.01em;}.cls-39{font-size:22px;}.cls-40{font-size:14.55px;font-family:FuturaNo2SCDEE-Medi, FuturaNo2SCDEEMed;}.cls-41{letter-spacing:-0.01em;}.cls-42{letter-spacing:-0.05em;}.cls-43{letter-spacing:-0.05em;}</style><symbol id="Nuevo_símbolo_2" data-name="Nuevo símbolo 2" viewBox="0 0 200.84 200.84"><path class="cls-1" d="M198.84,190.35V35.59L182,52.43V173.51ZM173.51,182H52.43L35.6,198.84H190.35ZM2,10.48V165.39l16.84-16.84V27.33Zm25.32,8.36H148.55L165.39,2H10.48Z"/><line class="cls-2" x1="66.49" y1="134.44" x2="99.51" y2="101.41"/><polygon class="cls-3" points="51.79 88.68 99.51 101.41 112.35 149.11 134.4 66.45 51.79 88.68"/></symbol></defs><title>Mesa de trabajo s2</title><rect class="cls-4" x="15" y="316.82" width="582" height="183.5" rx="12" ry="12"/><line class="cls-5" x1="310" y1="38.5" x2="310" y2="292.1"/><line class="cls-5" x1="310" y1="33.66" x2="310" y2="286.5"/><line class="cls-5" x1="315" y1="63.5" x2="315" y2="304.5"/><text class="cls-6" transform="translate(30 108.24)"><tspan class="cls-7">S<tspan class="cls-8" x="21.09" y="0">T</tspan><tspan x="39.86" y="0">O</tspan><tspan class="cls-9" x="64.46" y="0">R</tspan><tspan x="86.14" y="0">YTELLING</tspan></tspan><tspan class="cls-10"><tspan x="0" y="36">FULLS</tspan><tspan class="cls-11" x="46.68" y="36">T</tspan><tspan x="54.74" y="36">ACK</tspan><tspan class="cls-12" x="85.58" y="36"> </tspan><tspan x="91.72" y="36">MARKETING</tspan><tspan class="cls-12" x="180.89" y="36"> </tspan><tspan class="cls-13" x="187.03" y="36">es</tspan><tspan class="cls-12" x="202.87" y="36"> </tspan><tspan x="209" y="36">una</tspan><tspan class="cls-12" x="234.03" y="36"> </tspan><tspan x="240.17" y="36">em</tspan><tspan x="261" y="36">-</tspan><tspan x="0" y="54">presa</tspan><tspan class="cls-14" x="37.52" y="54"> </tspan><tspan x="44.36" y="54">de</tspan><tspan class="cls-15" x="61.05" y="54"> </tspan><tspan x="67.88" y="54">primer</tspan><tspan class="cls-14" x="110.39" y="54"> </tspan><tspan x="117.23" y="54">nivel</tspan><tspan class="cls-15" x="148.08" y="54"> </tspan><tspan x="154.92" y="54">que</tspan><tspan class="cls-14" x="179.94" y="54"> </tspan><tspan x="186.78" y="54">proporciona </tspan><tspan x="0" y="72">servicios</tspan><tspan class="cls-16" x="58.34" y="72"> </tspan><tspan x="62.68" y="72">de</tspan><tspan class="cls-17" x="79.37" y="72"> </tspan><tspan x="83.7" y="72">gran</tspan><tspan class="cls-16" x="113.73" y="72"> </tspan><tspan x="118.06" y="72">calidad,</tspan><tspan class="cls-17" x="169.76" y="72"> </tspan><tspan x="174.1" y="72">brindando</tspan><tspan class="cls-16" x="240.83" y="72"> </tspan><tspan x="245.16" y="72">es</tspan><tspan x="261" y="72">-</tspan><tspan x="0" y="90">trategias</tspan><tspan class="cls-18" x="57.53" y="90"> </tspan><tspan x="62.42" y="90">de</tspan><tspan class="cls-19" x="79.1" y="90"> </tspan><tspan x="83.99" y="90">mejora</tspan><tspan class="cls-18" x="129.84" y="90"> </tspan><tspan x="134.72" y="90">a</tspan><tspan class="cls-18" x="143.06" y="90"> </tspan><tspan x="147.95" y="90">través</tspan><tspan class="cls-18" x="188.8" y="90"> </tspan><tspan x="193.68" y="90">de</tspan><tspan class="cls-19" x="210.37" y="90"> </tspan><tspan x="215.25" y="90">una</tspan><tspan class="cls-18" x="240.28" y="90"> </tspan><tspan x="245.16" y="90">es</tspan><tspan x="261" y="90">-</tspan><tspan x="0" y="108">trecha</tspan><tspan class="cls-20" x="41.69" y="108"> </tspan><tspan x="51.91" y="108">colaboración</tspan><tspan class="cls-20" x="136.96" y="108"> </tspan><tspan x="147.18" y="108">con</tspan><tspan class="cls-20" x="171.36" y="108"> </tspan><tspan x="181.58" y="108">sus</tspan><tspan class="cls-20" x="204.92" y="108"> </tspan><tspan x="215.14" y="108">clientes </tspan><tspan x="0" y="126">para alcanzar sus objetivos empresaria</tspan><tspan x="260.96" y="126">-</tspan><tspan x="0" y="144">les.</tspan></tspan></text><text class="cls-21" transform="translate(63.27 356.18)"><tspan class="cls-7">MISIÓN</tspan><tspan class="cls-22"><tspan x="-23.27" y="28.8">Proporcionamos</tspan><tspan class="cls-23" x="64.1" y="28.8"> </tspan><tspan x="89.05" y="28.8">servicios </tspan><tspan x="-23.27" y="43.2">profesionales,</tspan><tspan class="cls-24" x="51.44" y="43.2"> </tspan><tspan x="81.68" y="43.2">otorgando </tspan><tspan x="-23.27" y="57.6">estrategias</tspan><tspan class="cls-25" x="35.43" y="57.6"> </tspan><tspan x="38.16" y="57.6">de</tspan><tspan class="cls-25" x="51.5" y="57.6"> </tspan><tspan x="54.23" y="57.6">mejora</tspan><tspan class="cls-25" x="90.91" y="57.6"> </tspan><tspan x="93.65" y="57.6">a</tspan><tspan class="cls-25" x="100.32" y="57.6"> </tspan><tspan x="103.05" y="57.6">través </tspan><tspan x="-23.27" y="72">de</tspan><tspan class="cls-26" x="-9.93" y="72"> </tspan><tspan x="-6.07" y="72">una</tspan><tspan class="cls-26" x="13.95" y="72"> </tspan><tspan x="17.8" y="72">estrecha</tspan><tspan class="cls-26" x="63.83" y="72"> </tspan><tspan x="67.68" y="72">colaboración </tspan><tspan x="-23.27" y="86.4">con</tspan><tspan class="cls-27" x="-3.93" y="86.4"> </tspan><tspan x="5.72" y="86.4">nuestros</tspan><tspan class="cls-27" x="51.74" y="86.4"> </tspan><tspan x="61.38" y="86.4">clientes</tspan><tspan class="cls-27" x="102.07" y="86.4"> </tspan><tspan x="111.71" y="86.4">para </tspan><tspan x="-23.27" y="100.8">alcanzar sus objetivos.</tspan></tspan></text><text class="cls-21" transform="translate(256.4 356.31)"><tspan class="cls-7">VISIÓN</tspan><tspan class="cls-22"><tspan x="-25.9" y="28.8">Ser</tspan><tspan class="cls-28" x="-7.22" y="28.8"> </tspan><tspan x="-2.64" y="28.8">una</tspan><tspan class="cls-29" x="17.38" y="28.8"> </tspan><tspan x="21.96" y="28.8">empresa</tspan><tspan class="cls-28" x="68.65" y="28.8"> </tspan><tspan x="73.23" y="28.8">clave</tspan><tspan class="cls-29" x="101.25" y="28.8"> </tspan><tspan x="105.83" y="28.8">en</tspan><tspan class="cls-28" x="119.18" y="28.8"> </tspan><tspan x="123.76" y="28.8">el </tspan><tspan x="-25.9" y="43.2">desarrollo</tspan><tspan class="cls-30" x="26.8" y="43.2"> </tspan><tspan x="32.88" y="43.2">y</tspan><tspan class="cls-30" x="38.88" y="43.2"> </tspan><tspan x="44.96" y="43.2">digitalización</tspan><tspan class="cls-30" x="113.67" y="43.2"> </tspan><tspan x="119.75" y="43.2">de </tspan><tspan x="-25.9" y="57.6">las PyMes a nivel mundial.</tspan></tspan></text><text class="cls-21" transform="translate(419.72 356.18)"><tspan class="cls-7"><tspan class="cls-31">V</tspan><tspan x="18.76" y="0">ALORES</tspan></tspan><tspan class="cls-22"><tspan x="-4.22" y="28.8">Calidad | Servicio | Integridad</tspan><tspan x="-4.22" y="57.6">Eficiencia | Responsabilidad</tspan><tspan x="-4.22" y="86.4">Discreción | Honestidad</tspan><tspan x="-4.22" y="115.2">Profesionalismo | Seguridad</tspan></tspan></text><text class="cls-6" transform="translate(438.37 108.24)"><tspan class="cls-7">NUESTRO <tspan x="-108.93" y="37.95">DIFERENCIADOR</tspan></tspan><tspan class="cls-10"><tspan x="-111.37" y="73.95">Estamos</tspan><tspan class="cls-32" x="-53.02" y="73.95"> </tspan><tspan x="-44.11" y="73.95">comprometidos</tspan><tspan class="cls-33" x="58.43" y="73.95"> </tspan><tspan x="67.33" y="73.95">contigo</tspan><tspan class="cls-32" x="115.7" y="73.95"> </tspan><tspan x="124.61" y="73.95">para </tspan><tspan x="-111.37" y="91.95">brindarte</tspan><tspan class="cls-34" x="-52.17" y="91.95"> </tspan><tspan x="-47.79" y="91.95">soluciones</tspan><tspan class="cls-34" x="23.09" y="91.95"> </tspan><tspan x="27.47" y="91.95">para</tspan><tspan class="cls-34" x="57.5" y="91.95"> </tspan><tspan x="61.88" y="91.95">el</tspan><tspan class="cls-34" x="73.55" y="91.95"> </tspan><tspan x="77.94" y="91.95">crecimiento </tspan><tspan x="-111.37" y="109.95">y</tspan><tspan class="cls-35" x="-103.87" y="109.95"> </tspan><tspan x="-98.27" y="109.95">desarrollo</tspan><tspan class="cls-36" x="-32.4" y="109.95"> </tspan><tspan x="-26.8" y="109.95">de</tspan><tspan class="cls-35" x="-10.12" y="109.95"> </tspan><tspan x="-4.52" y="109.95">tu</tspan><tspan class="cls-36" x="7.99" y="109.95"> </tspan><tspan x="13.59" y="109.95">empresa</tspan><tspan class="cls-35" x="71.95" y="109.95"> </tspan><tspan x="77.55" y="109.95">a</tspan><tspan class="cls-36" x="85.9" y="109.95"> </tspan><tspan x="91.5" y="109.95">través</tspan><tspan class="cls-35" x="132.34" y="109.95"> </tspan><tspan x="137.94" y="109.95">de </tspan><tspan x="-111.37" y="127.95">un</tspan><tspan class="cls-37" x="-94.69" y="127.95"> </tspan><tspan x="-90.64" y="127.95">servicio</tspan><tspan class="cls-38" x="-39.79" y="127.95"> </tspan><tspan x="-35.74" y="127.95">profesional</tspan><tspan class="cls-37" x="37.64" y="127.95"> </tspan><tspan x="41.69" y="127.95">que</tspan><tspan class="cls-38" x="66.71" y="127.95"> </tspan><tspan x="70.76" y="127.95">te</tspan><tspan class="cls-37" x="83.27" y="127.95"> </tspan><tspan x="87.32" y="127.95">lleve</tspan><tspan class="cls-38" x="118.17" y="127.95"> </tspan><tspan x="122.22" y="127.95">de</tspan><tspan class="cls-37" x="138.9" y="127.95"> </tspan><tspan x="142.95" y="127.95">la </tspan><tspan x="-111.37" y="145.95">mano en cada etapa del proyecto.</tspan></tspan></text><path class="cls-4" d="M0,28.94H101.72c4.83,0,8.78,3.62,8.78,8.05V47.06c0,4.43-4,8.05-8.78,8.05H0"/><text class="cls-39" transform="translate(28.5 50.48)">BRIEF</text><text class="cls-40" transform="translate(418.84 47.25)">FULL<tspan class="cls-41" x="26.08" y="0">S</tspan><tspan class="cls-42" x="33.63" y="0">T</tspan><tspan class="cls-43" x="38.98" y="0">A</tspan><tspan x="47.75" y="0">CK</tspan></text><text class="cls-40" transform="translate(518.96 47.24)">MARKETING</text><use id="Nuevo_símbolo_2-3" data-name="Nuevo símbolo 2" width="200.84" height="200.84" transform="translate(486.34 26.88) scale(0.15)" xlink:href="#Nuevo_símbolo_2"/></svg>