<svg id="Capa_1" data-name="Capa 1" xmlns="http://www.w3.org/2000/svg" xmlns:xlink="http://www.w3.org/1999/xlink" viewBox="0 0 612 792"><defs><style>.cls-1,.cls-2,.cls-3{stroke:#000;stroke-linejoin:round;}.cls-1{stroke-width:4px;}.cls-2{fill:#84ba24;stroke-linecap:round;}.cls-2,.cls-3{stroke-width:8px;}.cls-3,.cls-6{fill:none;}.cls-4{fill:#0b0a0c;}.cls-22,.cls-5{font-size:22px;}.cls-5,.cls-7{fill:#9c3;}.cls-16,.cls-18,.cls-20,.cls-28,.cls-5,.cls-7{font-family:Helvetica-Bold, Helvetica;}.cls-16,.cls-18,.cls-21,.cls-22,.cls-5,.cls-7{font-weight:700;}.cls-6{stroke:#211915;stroke-miterlimit:10;}.cls-7{font-size:27px;}.cls-8{letter-spacing:-0.04em;}.cls-9{letter-spacing:-0.04em;}.cls-10{letter-spacing:-0.07em;}.cls-11{letter-spacing:-0.02em;}.cls-12{font-size:11px;fill:#2a2a2a;}.cls-12,.cls-23{font-family:Helvetica, Helvetica;}.cls-13{letter-spacing:-0.05em;}.cls-14{letter-spacing:-0.04em;}.cls-15{letter-spacing:0em;}.cls-16,.cls-23{font-size:15px;}.cls-16,.cls-18,.cls-28{fill:#1f1f1f;}.cls-17{letter-spacing:-0.07em;}.cls-18,.cls-28{font-size:31.63px;}.cls-19{letter-spacing:-0.02em;}.cls-20{font-size:68px;fill:#0d0d0d;}.cls-23{fill:#1d1d1d;}.cls-24{letter-spacing:-0.11em;}.cls-25{letter-spacing:0.17em;}.cls-26{letter-spacing:0.2em;}.cls-27{letter-spacing:0.2em;}.cls-29{letter-spacing:0.16em;}.cls-30{letter-spacing:0.16em;}.cls-31{letter-spacing:0.28em;}.cls-32{letter-spacing:0.28em;}.cls-33{letter-spacing:0.1em;}.cls-34{letter-spacing:0.1em;}.cls-35{letter-spacing:0em;}.cls-36{letter-spacing:0.13em;}.cls-37{letter-spacing:0.13em;}.cls-38{letter-spacing:0.83em;}.cls-39{letter-spacing:0.83em;}.cls-40{font-size:14.55px;font-family:FuturaNo2SCDEE-Medi, FuturaNo2SCDEEMed;}.cls-41{letter-spacing:-0.01em;}.cls-42{letter-spacing:-0.05em;}.cls-43{letter-spacing:-0.05em;}</style><symbol id="Nuevo_símbolo_2" data-name="Nuevo símbolo 2" viewBox="0 0 200.84 200.84"><path class="cls-1" d="M198.84,190.35V35.59L182,52.43V173.51ZM173.51,182H52.43L35.6,198.84H190.35ZM2,10.48V165.39l16.84-16.84V27.33Zm25.32,8.36H148.55L165.39,2H10.48Z"/><line class="cls-2" x1="66.49" y1="134.44" x2="99.51" y2="101.41"/><polygon class="cls-3" points="51.79 88.68 99.51 101.41 112.35 149.11 134.4 66.45 51.79 88.68"/></symbol></defs><title>Mesa de trabajos 3</title><path class="cls-4" d="M0,28.44H169.38c8,0,14.62,3.62,14.62,8.05V46.56c0,4.43-6.58,8.05-14.62,8.05H0"/><text class="cls-5" transform="translate(40 49.91)">BROCHURE</text><line class="cls-6" x1="306.75" y1="503.31" x2="306.75" y2="770.46"/><rect class="cls-4" x="15" y="329.05" width="582" height="78.42" rx="12" ry="12"/><text class="cls-7" transform="translate(168.75 360.62)">SOMOS MUCHO MÁS <tspan x="-44.53" y="32.4">QUE UN</tspan><tspan class="cls-8" x="60.47" y="32.4">A </tspan><tspan x="85.5" y="32.4">AGENCI</tspan><tspan class="cls-9" x="190.5" y="32.4">A</tspan><tspan x="209.01" y="32.4" xml:space="preserve"> DIGI</tspan><tspan class="cls-10" x="272.02" y="32.4">T</tspan><tspan x="286.52" y="32.4">A</tspan><tspan class="cls-11" x="306.02" y="32.4">L</tspan></text><text class="cls-12" transform="translate(322.25 564.38)">Desarrollo | Implementación |<tspan class="cls-13" x="142.66" y="0"> </tspan><tspan x="145.11" y="0">Automatización | I</tspan><tspan class="cls-13" x="232.35" y="0">A</tspan></text><text class="cls-12" transform="translate(322.25 610.38)">Branding Coorporativo | Marketing Digital |<tspan class="cls-13" x="206.86" y="0"> </tspan><tspan x="209.32" y="0">Asesoría </tspan><tspan x="0" y="13.2">Profesional | Coaching | Soporte | Llamadas en </tspan><tspan class="cls-11" x="232.98" y="13.2">V</tspan><tspan x="240.12" y="13.2">ivo</tspan></text><text class="cls-12" transform="translate(322.25 502.38)">Responsive | HTM<tspan class="cls-14" x="90.27" y="0">L</tspan><tspan x="95.98" y="0" xml:space="preserve"> 5, CCS 3</tspan><tspan class="cls-11" x="143.67" y="0" xml:space="preserve"> Y</tspan><tspan class="cls-15" x="153.67" y="0" xml:space="preserve"> JS | User Experience | </tspan><tspan x="0" y="13.2">User Interfase | Layout | </tspan><tspan class="cls-11" x="120.05" y="13.2">V</tspan><tspan x="127.19" y="13.2">isual Design | Interactive </tspan><tspan x="0" y="26.4">Design | Usabitity </tspan></text><text class="cls-12" transform="translate(322.25 718.38)">Motion Graphics | Manual de Identidad Corporativa | <tspan x="0" y="13.2">Identidad Corporativa | Diseño de Logotipo</tspan></text><text class="cls-12" transform="translate(322.25 660.88)">SEO | SEM |<tspan class="cls-13" x="61.95" y="0"> </tspan><tspan x="64.41" y="0">Analytics | Social Media | </tspan><tspan class="cls-11" x="189.34" y="0">W</tspan><tspan x="199.53" y="0">ord of Mouth </tspan><tspan x="0" y="13.2">| Campañas en Facebook e Instagram</tspan><tspan class="cls-13" x="186.9" y="13.2"> </tspan><tspan x="189.35" y="13.2">Ads | Posicio</tspan><tspan x="252.74" y="13.2">-</tspan><tspan x="0" y="26.4">namiento de Marca</tspan></text><text class="cls-16"><tspan x="35.43" y="513.2">DESARROLLO WEB PROFESIONA</tspan><tspan class="cls-11" x="282.93" y="513.2">L</tspan><tspan x="75.44" y="567.2">DESARROLLO DE CH</tspan><tspan class="cls-17" x="231.28" y="567.2">A</tspan><tspan x="241" y="567.2">TBOTS</tspan><tspan x="70.68" y="621.2">CONSU</tspan><tspan class="cls-17" x="124.85" y="621.2">L</tspan><tspan class="cls-11" x="132.91" y="621.2">T</tspan><tspan x="141.8" y="621.2">ORÍ</tspan><tspan class="cls-8" x="168.47" y="621.2">A</tspan><tspan x="178.75" y="621.2" xml:space="preserve"> EMPRESARIA</tspan><tspan class="cls-11" x="282.93" y="621.2">L</tspan><tspan x="291.83" y="621.2"> </tspan><tspan x="134.05" y="675.2" xml:space="preserve">MARKETING  DIGI</tspan><tspan class="cls-17" x="264.05" y="675.2">T</tspan><tspan x="272.1" y="675.2">A</tspan><tspan class="cls-11" x="282.93" y="675.2">L</tspan><tspan x="130.4" y="729.2">DISEÑO</tspan><tspan class="cls-11" x="187.91" y="729.2" xml:space="preserve"> Y</tspan><tspan class="cls-8" x="201.55" y="729.2"> </tspan><tspan x="205.17" y="729.2">ANIMACIÓN</tspan></text><text class="cls-18" transform="translate(27.63 467.97)">SE<tspan class="cls-19" x="42.19" y="0">R</tspan><tspan x="64.47" y="0">VICIOS</tspan></text><text class="cls-20" transform="translate(323 137.05)"><tspan class="cls-21">“</tspan><tspan class="cls-22"><tspan x="0" y="-0.6">La mejor publicidad es la </tspan><tspan x="0" y="25.8">que hacen los clientes </tspan><tspan x="0" y="52.2">satisfechos ”</tspan></tspan><tspan class="cls-23"><tspan class="cls-24" x="0" y="96.6">T</tspan><tspan x="7.5" y="96.6">enemos</tspan><tspan class="cls-25" x="60.86" y="96.6"> </tspan><tspan x="67.53" y="96.6">una</tspan><tspan class="cls-25" x="92.56" y="96.6"> </tspan><tspan x="99.23" y="96.6">filosofía</tspan><tspan class="cls-25" x="150.92" y="96.6"> </tspan><tspan x="157.59" y="96.6">de</tspan><tspan class="cls-25" x="174.28" y="96.6"> </tspan><tspan x="180.94" y="96.6">colaboración </tspan><tspan x="0" y="114.6">que</tspan><tspan class="cls-26" x="25.03" y="114.6"> </tspan><tspan x="32.2" y="114.6">nos</tspan><tspan class="cls-27" x="56.39" y="114.6"> </tspan><tspan x="63.57" y="114.6">permite</tspan><tspan class="cls-26" x="113.58" y="114.6"> </tspan><tspan x="120.76" y="114.6">impulsar</tspan><tspan class="cls-27" x="177.44" y="114.6"> </tspan><tspan x="184.62" y="114.6">a</tspan><tspan class="cls-26" x="192.96" y="114.6"> </tspan><tspan x="200.14" y="114.6">empresas </tspan><tspan x="0" y="132.6">del mismo giro buscando el bien común.</tspan></tspan></text><text class="cls-28" transform="translate(26 110.9)"><tspan class="cls-21">NOSOTROS</tspan><tspan class="cls-23"><tspan x="0" y="36">Somos</tspan><tspan class="cls-29" x="46.68" y="36"> </tspan><tspan x="53.19" y="36">una</tspan><tspan class="cls-30" x="78.22" y="36"> </tspan><tspan x="84.73" y="36">empresa</tspan><tspan class="cls-29" x="143.09" y="36"> </tspan><tspan x="149.6" y="36">que</tspan><tspan class="cls-30" x="174.62" y="36"> </tspan><tspan x="181.13" y="36">brinda</tspan><tspan class="cls-29" x="222.83" y="36"> </tspan><tspan x="229.33" y="36">servi</tspan><tspan x="261" y="36">-</tspan><tspan x="0" y="54">cios</tspan><tspan class="cls-31" x="26.67" y="54"> </tspan><tspan x="35.02" y="54">de</tspan><tspan class="cls-32" x="51.7" y="54"> </tspan><tspan x="60.05" y="54">Consultoría</tspan><tspan class="cls-31" x="136.76" y="54"> </tspan><tspan x="145.1" y="54">Empresarial</tspan><tspan class="cls-32" x="225.13" y="54"> </tspan><tspan x="233.47" y="54">y</tspan><tspan class="cls-31" x="240.97" y="54"> </tspan><tspan x="249.32" y="54">de </tspan><tspan x="0" y="72">marketing,</tspan><tspan class="cls-33" x="70.03" y="72"> </tspan><tspan x="75.67" y="72">comprometida</tspan><tspan class="cls-34" x="170.71" y="72"> </tspan><tspan x="176.34" y="72">con</tspan><tspan class="cls-34" x="200.53" y="72"> </tspan><tspan class="cls-35" x="206.17" y="72">dar</tspan><tspan class="cls-33" x="227.85" y="72"> </tspan><tspan x="233.49" y="72">solu</tspan><tspan x="261" y="72">-</tspan><tspan x="0" y="90">ciones</tspan><tspan class="cls-36" x="43.36" y="90"> </tspan><tspan x="49.54" y="90">para</tspan><tspan class="cls-37" x="79.56" y="90"> </tspan><tspan x="85.74" y="90">el</tspan><tspan class="cls-36" x="97.41" y="90"> </tspan><tspan x="103.59" y="90">crecimiento</tspan><tspan class="cls-37" x="180.28" y="90"> </tspan><tspan x="186.46" y="90">y</tspan><tspan class="cls-36" x="193.96" y="90"> </tspan><tspan x="200.13" y="90">desarrollo </tspan><tspan x="0" y="108">de PyMEs.</tspan><tspan x="0" y="144">Entregamos</tspan><tspan class="cls-38" x="80.87" y="144"> </tspan><tspan x="97.56" y="144">los</tspan><tspan class="cls-39" x="116.73" y="144"> </tspan><tspan x="133.42" y="144">requerimientos</tspan><tspan class="cls-38" x="232.63" y="144"> </tspan><tspan x="249.32" y="144">de </tspan><tspan x="0" y="162">nuestros clientes en tiempo y forma.</tspan></tspan></text><line class="cls-6" x1="305" y1="38.93" x2="305" y2="292.52"/><line class="cls-6" x1="305" y1="34.09" x2="305" y2="286.93"/><line class="cls-6" x1="310" y1="63.93" x2="310" y2="304.93"/><text class="cls-40" transform="translate(418.84 46.75)">FULL<tspan class="cls-41" x="26.08" y="0">S</tspan><tspan class="cls-42" x="33.63" y="0">T</tspan><tspan class="cls-43" x="38.98" y="0">A</tspan><tspan x="47.75" y="0">CK</tspan></text><text class="cls-40" transform="translate(518.95 46.74)">MARKETING</text><use id="Nuevo_símbolo_2-3" data-name="Nuevo símbolo 2" width="200.84" height="200.84" transform="translate(486.34 26.38) scale(0.15)" xlink:href="#Nuevo_símbolo_2"/></svg>